<svg version="1.1" id="Layer_1" xmlns="http://www.w3.org/2000/svg" xmlns:xlink="http://www.w3.org/1999/xlink" x="0px" y="0px"
	 width="100%" viewBox="0 0 512 512" enable-background="new 0 0 512 512" xml:space="preserve">
<path fill="#000000" opacity="1.000000" stroke="none" 
	d="
M270.000000,513.000000 
	C180.021835,513.000000 90.543671,513.000000 1.032752,513.000000 
	C1.032752,342.396820 1.032752,171.793610 1.032752,1.095206 
	C171.561523,1.095206 342.123108,1.095206 512.842346,1.095206 
	C512.842346,171.666550 512.842346,342.333252 512.842346,513.000000 
	C432.126923,513.000000 351.313446,513.000000 270.000000,513.000000 
M342.286041,140.342606 
	C340.234222,119.666702 336.527924,99.389748 328.247620,79.555168 
	C326.694733,81.032990 325.640808,81.840614 324.824860,82.842125 
	C314.326477,95.727966 305.634552,109.776726 298.236359,124.629807 
	C296.954071,127.204292 295.856079,128.181244 292.565277,127.469482 
	C276.682648,124.034248 260.655334,124.101250 244.765549,127.371780 
	C241.328766,128.079147 240.227448,127.218475 238.677124,124.504730 
	C232.602753,113.872002 226.414368,103.292679 219.870056,92.945412 
	C216.878815,88.215942 212.962402,84.071617 209.117645,79.223145 
	C208.064468,81.112732 207.554001,81.795578 207.275360,82.562637 
	C200.638718,100.832283 196.650986,119.661652 194.900513,139.026489 
	C194.362778,144.975388 195.116501,151.871262 187.014542,155.008377 
	C183.350632,154.978622 179.686737,154.948868 175.723831,154.228760 
	C166.809647,128.675568 157.826294,103.146034 149.075089,77.537163 
	C148.061996,74.572510 146.661041,73.963928 143.839737,73.969963 
	C105.683212,74.051628 67.526436,74.022835 29.369730,74.035294 
	C28.304226,74.035645 27.238771,74.190536 26.002716,74.286621 
	C33.248104,95.439796 39.833344,116.364258 47.637051,136.823975 
	C52.466385,149.485504 54.187908,162.121307 54.142181,175.575470 
	C53.849422,261.718658 53.992855,347.863342 53.992855,434.007538 
	C53.992855,435.935822 53.992855,437.864075 53.992855,439.839508 
	C95.081558,439.839508 135.547089,439.839508 176.938263,439.985138 
	C271.265198,439.985138 365.592133,439.985138 460.000549,439.985138 
	C460.000549,438.420807 460.000488,437.589447 460.000488,436.758087 
	C460.000580,344.337036 460.001373,251.915970 459.993958,159.494919 
	C459.993866,158.333359 459.889862,157.171783 459.991882,155.241196 
	C469.364716,128.301788 478.737549,101.362381 488.173248,74.242287 
	C487.005432,74.112610 486.513672,74.010300 486.021912,74.010193 
	C447.215942,74.001686 408.409912,74.031059 369.604156,73.938324 
	C366.772766,73.931557 365.793549,75.016968 364.923798,77.549477 
	C357.658173,98.705811 350.218689,119.802437 342.286041,140.342606 
z"/>
<path fill="#FFD9A8" opacity="1.000000" stroke="none" 
	d="
M176.022827,154.919128 
	C179.686737,154.948868 183.350632,154.978622 187.737732,155.388245 
	C189.453278,155.844971 190.445679,155.989197 191.438034,155.989014 
	C243.576584,155.979858 295.715149,155.958481 348.331268,155.954742 
	C385.817352,155.984146 422.825897,155.997177 459.834412,156.010223 
	C459.889862,157.171783 459.993866,158.333359 459.993958,159.494919 
	C460.001373,251.915970 460.000580,344.337036 460.000488,436.758087 
	C460.000488,437.589447 460.000549,438.420807 460.000549,439.985138 
	C365.592133,439.985138 271.265198,439.985138 176.470230,439.453918 
	C176.009064,344.254852 176.015945,249.586990 176.022827,154.919128 
M426.008698,367.546021 
	C426.007355,365.715240 425.896759,363.876495 426.029388,362.055481 
	C426.247589,359.059448 425.013367,357.937286 421.979919,357.945526 
	C395.350464,358.017944 368.720612,358.014862 342.091095,357.948151 
	C339.143280,357.940765 337.885071,358.897247 337.939575,361.976105 
	C338.075012,369.629730 338.069672,377.288788 337.940857,384.942657 
	C337.890289,387.948059 338.996490,389.046661 342.019287,389.038452 
	C368.648743,388.966095 395.278687,388.952026 421.907990,389.051453 
	C425.364166,389.064362 426.134338,387.548065 426.048706,384.507874 
	C425.898804,379.186188 426.008026,373.857178 426.008698,367.546021 
M234.007370,381.409332 
	C234.006668,375.095337 233.906326,368.779114 234.048325,362.468323 
	C234.116745,359.428040 233.351974,357.856812 229.905029,357.931824 
	C221.933258,358.105377 213.953613,358.077148 205.980331,357.942810 
	C202.887115,357.890686 201.931854,359.180084 201.977280,362.106720 
	C202.095886,369.748138 202.110382,377.394257 201.972565,385.035004 
	C201.916809,388.125854 203.198929,389.088348 206.130219,389.037903 
	C213.272858,388.914948 220.419052,389.005432 227.563828,388.999573 
	C233.963531,388.994324 233.963531,388.988159 234.007370,381.409332 
M275.068817,388.880554 
	C275.703491,387.863678 276.869385,386.856812 276.888733,385.828369 
	C277.041779,377.685394 276.915436,369.537628 277.009399,361.392883 
	C277.045380,358.277710 275.235565,357.953735 272.810303,357.968750 
	C264.997192,358.017090 257.181641,358.086639 249.371094,357.936523 
	C246.209808,357.875763 244.872757,358.872925 244.948013,362.199005 
	C245.117172,369.676117 245.154724,377.164246 244.934769,384.638702 
	C244.826141,388.329834 246.455460,389.114746 249.717651,389.050232 
	C257.860474,388.889191 266.008301,388.981812 275.068817,388.880554 
z"/>
<path fill="#EFCB9F" opacity="1.000000" stroke="none" 
	d="
M175.873322,154.573944 
	C176.015945,249.586990 176.009064,344.254852 176.007401,439.381104 
	C135.547089,439.839508 95.081558,439.839508 53.992855,439.839508 
	C53.992855,437.864075 53.992855,435.935822 53.992855,434.007538 
	C53.992855,347.863342 53.849422,261.718658 54.142181,175.575470 
	C54.187908,162.121307 52.466385,149.485504 47.637051,136.823975 
	C39.833344,116.364258 33.248104,95.439796 26.002716,74.286621 
	C27.238771,74.190536 28.304226,74.035645 29.369730,74.035294 
	C67.526436,74.022835 105.683212,74.051628 143.839737,73.969963 
	C146.661041,73.963928 148.061996,74.572510 149.075089,77.537163 
	C157.826294,103.146034 166.809647,128.675568 175.873322,154.573944 
z"/>
<path fill="#F2CEA1" opacity="1.000000" stroke="none" 
	d="
M459.913147,155.625702 
	C422.825897,155.997177 385.817352,155.984146 348.249023,155.625610 
	C342.401001,151.733292 340.242249,147.128082 342.831635,140.917068 
	C350.218689,119.802437 357.658173,98.705811 364.923798,77.549477 
	C365.793549,75.016968 366.772766,73.931557 369.604156,73.938324 
	C408.409912,74.031059 447.215942,74.001686 486.021912,74.010193 
	C486.513672,74.010300 487.005432,74.112610 488.173248,74.242287 
	C478.737549,101.362381 469.364716,128.301788 459.913147,155.625702 
z"/>
<path fill="#40494C" opacity="1.000000" stroke="none" 
	d="
M342.558838,140.629837 
	C340.242249,147.128082 342.401001,151.733292 347.771423,155.609253 
	C295.715149,155.958481 243.576584,155.979858 191.438034,155.989014 
	C190.445679,155.989197 189.453278,155.844971 188.191330,155.431488 
	C195.116501,151.871262 194.362778,144.975388 194.900513,139.026489 
	C196.650986,119.661652 200.638718,100.832283 207.275360,82.562637 
	C207.554001,81.795578 208.064468,81.112732 209.117645,79.223145 
	C212.962402,84.071617 216.878815,88.215942 219.870056,92.945412 
	C226.414368,103.292679 232.602753,113.872002 238.677124,124.504730 
	C240.227448,127.218475 241.328766,128.079147 244.765549,127.371780 
	C260.655334,124.101250 276.682648,124.034248 292.565277,127.469482 
	C295.856079,128.181244 296.954071,127.204292 298.236359,124.629807 
	C305.634552,109.776726 314.326477,95.727966 324.824860,82.842125 
	C325.640808,81.840614 326.694733,81.032990 328.247620,79.555168 
	C336.527924,99.389748 340.234222,119.666702 342.558838,140.629837 
z"/>
<path fill="#E5C196" opacity="1.000000" stroke="none" 
	d="
M426.008698,368.038635 
	C426.008026,373.857178 425.898804,379.186188 426.048706,384.507874 
	C426.134338,387.548065 425.364166,389.064362 421.907990,389.051453 
	C395.278687,388.952026 368.648743,388.966095 342.019287,389.038452 
	C338.996490,389.046661 337.890289,387.948059 337.940857,384.942657 
	C338.069672,377.288788 338.075012,369.629730 337.939575,361.976105 
	C337.885071,358.897247 339.143280,357.940765 342.091095,357.948151 
	C368.720612,358.014862 395.350464,358.017944 421.979919,357.945526 
	C425.013367,357.937286 426.247589,359.059448 426.029388,362.055481 
	C425.896759,363.876495 426.007355,365.715240 426.008698,368.038635 
z"/>
<path fill="#E5C196" opacity="1.000000" stroke="none" 
	d="
M234.007355,381.894226 
	C233.963531,388.988159 233.963531,388.994324 227.563828,388.999573 
	C220.419052,389.005432 213.272858,388.914948 206.130219,389.037903 
	C203.198929,389.088348 201.916809,388.125854 201.972565,385.035004 
	C202.110382,377.394257 202.095886,369.748138 201.977280,362.106720 
	C201.931854,359.180084 202.887115,357.890686 205.980331,357.942810 
	C213.953613,358.077148 221.933258,358.105377 229.905029,357.931824 
	C233.351974,357.856812 234.116745,359.428040 234.048325,362.468323 
	C233.906326,368.779114 234.006668,375.095337 234.007355,381.894226 
z"/>
<path fill="#E5C196" opacity="1.000000" stroke="none" 
	d="
M274.611481,388.926605 
	C266.008301,388.981812 257.860474,388.889191 249.717651,389.050232 
	C246.455460,389.114746 244.826141,388.329834 244.934769,384.638702 
	C245.154724,377.164246 245.117172,369.676117 244.948013,362.199005 
	C244.872757,358.872925 246.209808,357.875763 249.371094,357.936523 
	C257.181641,358.086639 264.997192,358.017090 272.810303,357.968750 
	C275.235565,357.953735 277.045380,358.277710 277.009399,361.392883 
	C276.915436,369.537628 277.041779,377.685394 276.888733,385.828369 
	C276.869385,386.856812 275.703491,387.863678 274.611481,388.926605 
z"/>
</svg>